<svg width="200" height="200" viewBox="0 0 200 200" fill="none" xmlns="http://www.w3.org/2000/svg">
<path fill-rule="evenodd" clip-rule="evenodd" d="M100 68.75C101.658 68.75 103.247 69.4085 104.419 70.5806C105.592 71.7527 106.25 73.3424 106.25 75V93.75H125C126.658 93.75 128.247 94.4085 129.419 95.5806C130.592 96.7527 131.25 98.3424 131.25 100C131.25 101.658 130.592 103.247 129.419 104.419C128.247 105.592 126.658 106.25 125 106.25H106.25V125C106.25 126.658 105.592 128.247 104.419 129.419C103.247 130.592 101.658 131.25 100 131.25C98.3424 131.25 96.7527 130.592 95.5806 129.419C94.4085 128.247 93.75 126.658 93.75 125V106.25H75C73.3424 106.25 71.7527 105.592 70.5806 104.419C69.4085 103.247 68.75 101.658 68.75 100C68.75 98.3424 69.4085 96.7527 70.5806 95.5806C71.7527 94.4085 73.3424 93.75 75 93.75H93.75V75C93.75 73.3424 94.4085 71.7527 95.5806 70.5806C96.7527 69.4085 98.3424 68.75 100 68.75Z" fill="white"/>
<path d="M37.5 0H162.5C169.13 0 175.489 2.63392 180.178 7.32233C184.866 12.0107 187.5 18.3696 187.5 25V175C187.5 181.63 184.866 187.989 180.178 192.678C175.489 197.366 169.13 200 162.5 200H37.5C30.8696 200 24.5107 197.366 19.8223 192.678C15.1339 187.989 12.5 181.63 12.5 175V162.5H25V175C25 178.315 26.317 181.495 28.6612 183.839C31.0054 186.183 34.1848 187.5 37.5 187.5H162.5C165.815 187.5 168.995 186.183 171.339 183.839C173.683 181.495 175 178.315 175 175V25C175 21.6848 173.683 18.5054 171.339 16.1612C168.995 13.817 165.815 12.5 162.5 12.5H37.5C34.1848 12.5 31.0054 13.817 28.6612 16.1612C26.317 18.5054 25 21.6848 25 25V37.5H12.5V25C12.5 18.3696 15.1339 12.0107 19.8223 7.32233C24.5107 2.63392 30.8696 0 37.5 0Z" fill="white"/>
<path d="M12.5 62.5V56.25C12.5 54.5924 13.1585 53.0027 14.3306 51.8306C15.5027 50.6585 17.0924 50 18.75 50C20.4076 50 21.9973 50.6585 23.1694 51.8306C24.3415 53.0027 25 54.5924 25 56.25V62.5H31.25C32.9076 62.5 34.4973 63.1585 35.6694 64.3306C36.8415 65.5027 37.5 67.0924 37.5 68.75C37.5 70.4076 36.8415 71.9973 35.6694 73.1694C34.4973 74.3415 32.9076 75 31.25 75H6.25C4.5924 75 3.00269 74.3415 1.83058 73.1694C0.65848 71.9973 0 70.4076 0 68.75C0 67.0924 0.65848 65.5027 1.83058 64.3306C3.00269 63.1585 4.5924 62.5 6.25 62.5H12.5ZM12.5 100V93.75C12.5 92.0924 13.1585 90.5027 14.3306 89.3306C15.5027 88.1585 17.0924 87.5 18.75 87.5C20.4076 87.5 21.9973 88.1585 23.1694 89.3306C24.3415 90.5027 25 92.0924 25 93.75V100H31.25C32.9076 100 34.4973 100.658 35.6694 101.831C36.8415 103.003 37.5 104.592 37.5 106.25C37.5 107.908 36.8415 109.497 35.6694 110.669C34.4973 111.842 32.9076 112.5 31.25 112.5H6.25C4.5924 112.5 3.00269 111.842 1.83058 110.669C0.65848 109.497 0 107.908 0 106.25C0 104.592 0.65848 103.003 1.83058 101.831C3.00269 100.658 4.5924 100 6.25 100H12.5ZM12.5 137.5V131.25C12.5 129.592 13.1585 128.003 14.3306 126.831C15.5027 125.658 17.0924 125 18.75 125C20.4076 125 21.9973 125.658 23.1694 126.831C24.3415 128.003 25 129.592 25 131.25V137.5H31.25C32.9076 137.5 34.4973 138.158 35.6694 139.331C36.8415 140.503 37.5 142.092 37.5 143.75C37.5 145.408 36.8415 146.997 35.6694 148.169C34.4973 149.342 32.9076 150 31.25 150H6.25C4.5924 150 3.00269 149.342 1.83058 148.169C0.65848 146.997 0 145.408 0 143.75C0 142.092 0.65848 140.503 1.83058 139.331C3.00269 138.158 4.5924 137.5 6.25 137.5H12.5Z" fill="white"/>
</svg>
