<svg width="20" height="17" viewBox="0 0 20 17" fill="none" xmlns="http://www.w3.org/2000/svg">
<path fill-rule="evenodd" clip-rule="evenodd" d="M20 8.5C20 8.17801 19.8683 7.86921 19.6339 7.64153C19.3995 7.41384 19.0816 7.28593 18.7501 7.28593H4.26926L9.63616 2.07516C9.87085 1.84719 10.0027 1.538 10.0027 1.2156C10.0027 0.893204 9.87085 0.584011 9.63616 0.356041C9.40147 0.128072 9.08316 0 8.75126 0C8.41935 0 8.10105 0.128072 7.86636 0.356041L0.367192 7.64044C0.250797 7.75322 0.158451 7.88719 0.0954419 8.03469C0.0324328 8.18219 -5.96046e-07 8.34031 -5.96046e-07 8.5C-5.96046e-07 8.65969 0.0324328 8.81781 0.0954419 8.96531C0.158451 9.11281 0.250797 9.24678 0.367192 9.35956L7.86636 16.644C8.10105 16.8719 8.41935 17 8.75126 17C9.08316 17 9.40147 16.8719 9.63616 16.644C9.87085 16.416 10.0027 16.1068 10.0027 15.7844C10.0027 15.462 9.87085 15.1528 9.63616 14.9248L4.26926 9.71407H18.7501C19.0816 9.71407 19.3995 9.58616 19.6339 9.35848C19.8683 9.13079 20 8.82199 20 8.5Z" fill="black"/>
</svg>
