<svg width="400" height="300" viewBox="0 0 400 300" fill="none" xmlns="http://www.w3.org/2000/svg">
<rect width="400" height="300" fill="white"/>
<g clip-path="url(#clip0_4436_85)">
<path d="M162.5 112.5L237.5 187.5" stroke="black" stroke-width="5" stroke-linecap="round" stroke-linejoin="round"/>
<path d="M212.5 133.333H212.542" stroke="black" stroke-width="5" stroke-linecap="round" stroke-linejoin="round"/>
<path d="M183.333 116.667H220.833C224.148 116.667 227.328 117.984 229.672 120.328C232.016 122.672 233.333 125.851 233.333 129.167V166.667M229.671 179.675C227.326 182.018 224.148 183.334 220.833 183.333H179.167C175.851 183.333 172.672 182.016 170.328 179.672C167.984 177.328 166.667 174.149 166.667 170.833V129.167C166.667 125.696 168.083 122.554 170.367 120.288L229.671 179.675Z" stroke="black" stroke-width="5" stroke-linecap="round" stroke-linejoin="round"/>
<path d="M166.667 162.5L183.333 145.833C187.2 142.113 191.967 142.113 195.833 145.833L216.667 166.667" stroke="black" stroke-width="5" stroke-linecap="round" stroke-linejoin="round"/>
<path d="M218 151.417C220.404 151.171 222.842 152.092 225 154.167L233.333 162.5" stroke="black" stroke-width="5" stroke-linecap="round" stroke-linejoin="round"/>
</g>
<defs>
<clipPath id="clip0_4436_85">
<rect width="100" height="100" fill="white" transform="translate(150 100)"/>
</clipPath>
</defs>
</svg>
