<svg width="54" height="54" viewBox="0 0 54 54" fill="none" xmlns="http://www.w3.org/2000/svg">
<path d="M2 18.6667H52M13.1111 2V7.55556M40.8889 2V7.55556M10.3333 27H15.8889M24.2222 27H29.7778M38.1111 27H43.6667M10.3333 35.3333H15.8889M24.2222 35.3333H29.7778M38.1111 35.3333H43.6667M10.3333 43.6667H15.8889M24.2222 43.6667H29.7778M38.1111 43.6667H43.6667M10.8889 52H43.1111C46.2225 52 47.7783 52 48.9667 51.3944C50.0119 50.8619 50.8619 50.0119 51.3944 48.9667C52 47.7783 52 46.2225 52 43.1111V16.4444C52 13.333 52 11.7773 51.3944 10.5889C50.8619 9.54358 50.0119 8.69369 48.9667 8.16108C47.7783 7.55556 46.2225 7.55556 43.1111 7.55556H10.8889C7.7775 7.55556 6.22178 7.55556 5.03339 8.16108C3.98803 8.69369 3.13814 9.54358 2.60553 10.5889C2 11.7773 2 13.333 2 16.4444V43.1111C2 46.2225 2 47.7783 2.60553 48.9667C3.13814 50.0119 3.98803 50.8619 5.03339 51.3944C6.22178 52 7.77747 52 10.8889 52Z" stroke="black" stroke-width="4" stroke-linecap="round"/>
</svg>
