<svg width="44" height="44" viewBox="0 0 44 44" fill="none" xmlns="http://www.w3.org/2000/svg">
<path d="M32 4.67564C29.0582 2.97394 25.6428 2 22 2C10.9543 2 2 10.9543 2 22C2 25.1994 2.75124 28.2232 4.08692 30.905C4.44188 31.6176 4.56002 32.4322 4.35424 33.2012L3.16302 37.6534C2.6459 39.586 4.41402 41.354 6.3467 40.837L10.7988 39.6458C11.5679 39.44 12.3824 39.5582 13.0951 39.913C15.7767 41.2488 18.8006 42 22 42C33.0456 42 42 33.0456 42 22C42 18.3572 41.026 14.9417 39.3244 12" stroke="black" stroke-width="4" stroke-linecap="round"/>
<path d="M14 22H14.018M21.982 22H22M29.982 22H30" stroke="black" stroke-width="4" stroke-linecap="round" stroke-linejoin="round"/>
</svg>
