<svg width="85" height="56" viewBox="0 0 85 56" fill="none" xmlns="http://www.w3.org/2000/svg">
<path d="M39.4785 0.25C40.779 0.25 41.8329 1.30305 41.833 2.60352V2.65625C41.833 3.95684 40.7791 5.00977 39.4785 5.00977H36.6611L36.5947 5.15723V5.1582C36.5945 5.15875 36.5932 5.15915 36.5928 5.16016L36.5732 5.2041C36.5597 5.23463 36.5401 5.2798 36.5146 5.33887C36.4636 5.45726 36.3898 5.63196 36.2979 5.85742C36.1139 6.30843 35.8575 6.9638 35.5674 7.7832C34.9873 9.4218 34.2714 11.7191 33.7266 14.3525C32.6392 19.6088 32.2246 26.2544 34.998 31.6748L35.0674 31.8115H49.0088L49.0791 31.6768C50.6387 28.6974 52.8534 23.5698 52.8535 18.4111V13.1504C52.8536 11.8367 53.9197 10.7705 55.2334 10.7705H76.2744C77.5879 10.7708 78.6542 11.8369 78.6543 13.1504V18.459L78.6719 18.5039L78.6729 18.5059C78.6735 18.5074 78.6746 18.5097 78.6758 18.5127C78.6783 18.5189 78.6816 18.5286 78.6865 18.541C78.6964 18.5659 78.7114 18.6027 78.7305 18.6514C78.7688 18.7491 78.8248 18.8942 78.8965 19.0811C79.0398 19.4548 79.2453 19.9975 79.4912 20.6738C79.9833 22.0271 80.6389 23.9139 81.2949 26.0459C82.6095 30.3183 83.914 35.5468 83.9141 39.4512C83.9141 48.0292 76.9618 54.9823 68.3838 54.9824C61.6263 54.9824 55.8926 50.6573 53.7568 44.6279L53.6973 44.4619H30.4678L30.4082 44.6279C28.2751 50.6571 22.5388 54.9824 15.7812 54.9824C8.06919 54.9822 2.07579 49.551 0.634766 42.9619C-1.51693 33.1252 5.65046 24.4366 14.9873 23.9629L15.167 23.9531L15.2148 23.7793C16.7905 18.0776 22.1025 7.50517 26.4453 0.25H39.4785ZM15.7812 28.6807C9.84149 28.6809 5.01188 33.5114 5.01172 39.4512C5.01172 45.3911 9.84139 50.2214 15.7812 50.2217C21.7213 50.2217 26.5518 45.3912 26.5518 39.4512C26.5516 33.5112 21.7212 28.6807 15.7812 28.6807ZM29.1016 5.13379C25.3886 11.6526 21.337 19.908 19.9316 24.6006L19.8037 25.043L19.3066 26.8477L19.2422 27.083L19.4756 27.1533C24.7901 28.751 28.6825 33.6227 28.6826 39.4512V39.7012H57.0605L58.2432 43.041C59.7644 47.3353 63.8379 50.2217 68.3838 50.2217C74.3238 50.2216 79.1543 45.3912 79.1543 39.4512C79.1542 36.7609 78.3657 33.1055 77.3975 29.6514C76.4274 26.1909 75.2697 22.9072 74.5166 20.9512L74.4541 20.791H57.4805L57.457 21.0137C56.9199 26.0147 54.9804 30.6675 53.2969 33.8828V33.8838L51.8916 36.5713H32.1572L30.7588 33.8408C28.1543 28.7513 27.8266 22.9215 28.3965 17.7051C28.9661 12.4909 30.4308 7.91267 31.3867 5.34473L31.5117 5.00781H29.1738L29.1016 5.13379ZM15.7812 34.4414C18.5493 34.4414 20.7918 36.6831 20.792 39.4512C20.792 42.2194 18.5494 44.4619 15.7812 44.4619C13.0133 44.4617 10.7715 42.2192 10.7715 39.4512C10.7716 36.6833 13.0134 34.4416 15.7812 34.4414ZM68.3838 34.4414C71.1518 34.4415 73.3934 36.6832 73.3936 39.4512C73.3936 42.2193 71.1519 44.4618 68.3838 44.4619C65.6156 44.4619 63.373 42.2194 63.373 39.4512C63.3732 36.6831 65.6157 34.4414 68.3838 34.4414ZM15.7812 36.5713C14.1943 36.5715 12.9015 37.8642 12.9014 39.4512C12.9014 41.0383 14.1942 42.3318 15.7812 42.332C17.3685 42.332 18.6621 41.0384 18.6621 39.4512C18.662 37.864 17.3684 36.5713 15.7812 36.5713ZM68.3838 36.5713C66.7966 36.5713 65.5041 37.864 65.5039 39.4512C65.5039 41.0384 66.7965 42.332 68.3838 42.332C69.971 42.3319 71.2637 41.0384 71.2637 39.4512C71.2635 37.8641 69.9709 36.5714 68.3838 36.5713ZM57.6133 18.6611H73.8936V15.5303H57.6133V18.6611Z" fill="white" stroke="white" stroke-width="0.5"/>
</svg>
