<svg width="50" height="50" viewBox="0 0 50 50" fill="none" xmlns="http://www.w3.org/2000/svg">
<path d="M45.4545 37.8568V25V12.1432C48.1027 11.2854 50 8.97188 50 6.25C50 2.79736 46.9483 0 43.1818 0C39.4153 0 36.3636 2.79736 36.3636 6.25C36.3636 8.97188 38.2608 11.2854 40.9091 12.1432V22.9167H27.2727V12.1432C29.921 11.2854 31.8181 8.97188 31.8181 6.25C31.8181 2.79736 28.7665 0 24.9999 0C21.2334 0 18.1818 2.79736 18.1818 6.25C18.1818 8.97188 20.0789 11.2854 22.7273 12.1432V22.9167H9.09088V12.1432C11.7391 11.2854 13.6364 8.97188 13.6364 6.25C13.6364 2.79736 10.5847 0 6.81819 0C3.05167 0 0 2.79736 0 6.25C0 8.97188 1.89716 11.2854 4.54549 12.1432V25C4.54549 26.1506 5.563 27.0833 6.81819 27.0833H22.7273V37.8568C20.0789 38.7146 18.1818 41.0281 18.1818 43.75C18.1818 47.2026 21.2334 50 24.9999 50C28.7665 50 31.8181 47.2026 31.8181 43.75C31.8181 41.0281 29.921 38.7146 27.2726 37.8568V27.0833H40.909V37.8568C38.2608 38.7146 36.3635 41.0281 36.3635 43.75C36.3635 47.2026 39.4152 50 43.1817 50C46.9482 50 49.9999 47.2026 49.9999 43.75C50 41.0281 48.1027 38.7146 45.4545 37.8568ZM43.1818 4.1667C44.438 4.1667 45.4545 5.09854 45.4545 6.25C45.4545 7.40146 44.438 8.3333 43.1818 8.3333C41.9257 8.3333 40.909 7.40146 40.909 6.25C40.909 5.09854 41.9256 4.1667 43.1818 4.1667ZM24.9999 4.1667C26.2561 4.1667 27.2726 5.09854 27.2726 6.25C27.2726 7.40146 26.2561 8.3333 24.9999 8.3333C23.7438 8.3333 22.7273 7.40146 22.7273 6.25C22.7273 5.09854 23.7438 4.1667 24.9999 4.1667ZM6.81808 4.1667C8.07422 4.1667 9.09077 5.09854 9.09077 6.25C9.09077 7.40146 8.07422 8.3333 6.81808 8.3333C5.56194 8.3333 4.54539 7.40146 4.54539 6.25C4.54539 5.09854 5.56194 4.1667 6.81808 4.1667ZM24.9999 45.8333C23.7438 45.8333 22.7273 44.9015 22.7273 43.75C22.7273 42.5985 23.7438 41.6667 24.9999 41.6667C26.2561 41.6667 27.2726 42.5985 27.2726 43.75C27.2726 44.9015 26.2561 45.8333 24.9999 45.8333ZM43.1818 45.8333C41.9257 45.8333 40.9091 44.9015 40.9091 43.75C40.9091 42.5985 41.9257 41.6667 43.1818 41.6667C44.438 41.6667 45.4545 42.5985 45.4545 43.75C45.4545 44.9015 44.438 45.8333 43.1818 45.8333Z" fill="black"/>
</svg>
