<svg width="80" height="80" viewBox="0 0 80 80" fill="none" xmlns="http://www.w3.org/2000/svg">
<rect width="80" height="80" rx="20" fill="#414141"/>
<path d="M57.8638 21L53.8638 25M53.8638 25L59.8638 31L52.8638 38L46.8638 32M53.8638 25L46.8638 32M38.6438 40.22C39.6765 41.2389 40.4974 42.4521 41.0593 43.7896C41.6212 45.1271 41.913 46.5625 41.9179 48.0133C41.9227 49.464 41.6406 50.9014 41.0877 52.2426C40.5347 53.5838 39.722 54.8025 38.6961 55.8283C37.6703 56.8541 36.4517 57.6669 35.1104 58.2198C33.7692 58.7728 32.3318 59.0549 30.8811 59.0501C29.4304 59.0452 27.9949 58.7534 26.6574 58.1915C25.3199 57.6296 24.1068 56.8087 23.0878 55.776C21.0841 53.7014 19.9754 50.9228 20.0004 48.0386C20.0255 45.1544 21.1823 42.3955 23.2218 40.356C25.2613 38.3165 28.0203 37.1596 30.9044 37.1346C33.7886 37.1095 36.5672 38.2183 38.6418 40.222L38.6438 40.22ZM38.6438 40.22L46.8638 32" stroke="white" stroke-width="4" stroke-linecap="round" stroke-linejoin="round"/>
</svg>
