<svg width="231" height="59" viewBox="0 0 231 59" fill="none" xmlns="http://www.w3.org/2000/svg">
<path d="M98.1186 47.8077V22.6077H108.739C111.427 22.6077 113.791 23.1357 115.831 24.1917C117.895 25.2477 119.491 26.7237 120.619 28.6197C121.771 30.5157 122.347 32.7117 122.347 35.2077C122.347 37.7037 121.771 39.8997 120.619 41.7957C119.491 43.6917 117.895 45.1677 115.831 46.2237C113.791 47.2797 111.427 47.8077 108.739 47.8077H98.1186ZM101.719 44.6757H108.523C110.611 44.6757 112.411 44.2797 113.923 43.4877C115.459 42.6957 116.647 41.5917 117.487 40.1757C118.327 38.7357 118.747 37.0797 118.747 35.2077C118.747 33.3117 118.327 31.6557 117.487 30.2397C116.647 28.8237 115.459 27.7197 113.923 26.9277C112.411 26.1357 110.611 25.7397 108.523 25.7397H101.719V44.6757ZM127.861 47.8077V22.6077H137.689C139.897 22.6077 141.781 22.9557 143.341 23.6517C144.901 24.3477 146.101 25.3557 146.941 26.6757C147.781 27.9957 148.201 29.5677 148.201 31.3917C148.201 33.2157 147.781 34.7877 146.941 36.1077C146.101 37.4037 144.901 38.3997 143.341 39.0957C141.781 39.7917 139.897 40.1397 137.689 40.1397H129.841L131.461 38.4837V47.8077H127.861ZM144.709 47.8077L138.301 38.6637H142.153L148.633 47.8077H144.709ZM131.461 38.8437L129.841 37.0797H137.581C139.885 37.0797 141.625 36.5877 142.801 35.6037C144.001 34.5957 144.601 33.1917 144.601 31.3917C144.601 29.5917 144.001 28.1997 142.801 27.2157C141.625 26.2317 139.885 25.7397 137.581 25.7397H129.841L131.461 23.9397V38.8437ZM154.017 47.8077V22.6077H157.617V47.8077H154.017ZM170.711 47.8077L162.287 22.6077H165.995L173.735 45.8637H171.863L179.891 22.6077H183.203L191.051 45.8637H189.251L197.1 22.6077H200.52L192.095 47.8077H188.316L180.971 26.2437H181.943L174.563 47.8077H170.711ZM200.299 47.8077L211.711 22.6077H215.275L226.723 47.8077H222.943L212.755 24.6237H214.195L204.007 47.8077H200.299ZM205.159 41.5077L206.131 38.6277H220.315L221.359 41.5077H205.159Z" fill="white"/>
<path d="M15.7817 34.1913C12.8754 34.1913 10.5215 36.5452 10.5215 39.4515C10.5215 42.3577 12.8754 44.7117 15.7817 44.7117C18.688 44.7117 21.0419 42.3577 21.0419 39.4515C21.0419 36.5452 18.688 34.1913 15.7817 34.1913ZM15.7817 42.0816C14.3325 42.0816 13.1516 40.9006 13.1516 39.4515C13.1516 38.0023 14.3325 36.8214 15.7817 36.8214C17.2309 36.8214 18.4118 38.0023 18.4118 39.4515C18.4118 40.9006 17.2309 42.0816 15.7817 42.0816ZM68.3836 34.1913C65.4774 34.1913 63.1234 36.5452 63.1234 39.4515C63.1234 42.3577 65.4774 44.7117 68.3836 44.7117C71.2899 44.7117 73.6438 42.3577 73.6438 39.4515C73.6438 36.5452 71.2899 34.1913 68.3836 34.1913ZM68.3836 42.0816C66.9345 42.0816 65.7535 40.9006 65.7535 39.4515C65.7535 38.0023 66.9345 36.8214 68.3836 36.8214C69.8328 36.8214 71.0137 38.0023 71.0137 39.4515C71.0137 40.9006 69.8328 42.0816 68.3836 42.0816ZM78.904 18.4107V13.1505C78.904 11.6987 77.7257 10.5204 76.2739 10.5204H55.2332C53.7813 10.5204 52.6031 11.6987 52.6031 13.1505V18.4107C52.6031 23.5078 50.4122 28.5918 48.8578 31.5612H35.2207C29.7528 20.8751 36.8225 5.26019 36.8225 5.26019H39.4789C40.9175 5.26019 42.0827 4.09506 42.0827 2.6564V2.6038C42.0827 1.16513 40.9175 0 39.4789 0H26.3021C21.944 7.2617 16.5681 17.9452 14.9743 23.713C5.4875 24.1943 -1.79524 33.0235 0.390368 43.0152C1.85533 49.7141 7.94664 55.232 15.7817 55.232C22.6489 55.232 28.4772 50.8372 30.6444 44.7117C31.8227 44.7117 53.521 44.7117 53.521 44.7117C55.6908 50.8372 61.5165 55.232 68.3836 55.232C77.0998 55.232 84.1642 48.1676 84.1642 39.4515C84.1642 31.5612 78.904 18.4107 78.904 18.4107ZM57.8633 15.7806H73.6438V18.4107H57.8633V15.7806ZM15.7817 49.9719C9.9797 49.9719 5.26131 45.2535 5.26131 39.4515C5.26131 33.6495 9.9797 28.9311 15.7817 28.9311C21.5837 28.9311 26.3021 33.6495 26.3021 39.4515C26.3021 45.2535 21.5837 49.9719 15.7817 49.9719ZM68.3836 49.9719C63.944 49.9719 59.9647 47.1524 58.4787 42.9574L57.2373 39.4515H53.5183H28.9322C28.9322 33.5074 24.9634 28.5418 19.548 26.9138L20.0451 25.1095C21.3075 20.5411 25.4868 11.9854 29.3188 5.25756H31.152C29.232 10.4152 25.2658 23.6551 30.5365 33.9546L32.0041 36.8214H52.0428L53.5183 33.9993C55.2095 30.7695 57.1636 26.0853 57.7054 21.0408H74.283C75.7847 24.9412 78.904 34.1439 78.904 39.4515C78.904 45.2535 74.1856 49.9719 68.3836 49.9719Z" fill="white"/>
</svg>
