<svg width="163" height="37" viewBox="0 0 163 37" fill="none" xmlns="http://www.w3.org/2000/svg">
<path d="M55.15 29V8H64C66.24 8 68.21 8.44 69.91 9.32C71.63 10.2 72.96 11.43 73.9 13.01C74.86 14.59 75.34 16.42 75.34 18.5C75.34 20.58 74.86 22.41 73.9 23.99C72.96 25.57 71.63 26.8 69.91 27.68C68.21 28.56 66.24 29 64 29H55.15ZM58.15 26.39H63.82C65.56 26.39 67.06 26.06 68.32 25.4C69.6 24.74 70.59 23.82 71.29 22.64C71.99 21.44 72.34 20.06 72.34 18.5C72.34 16.92 71.99 15.54 71.29 14.36C70.59 13.18 69.6 12.26 68.32 11.6C67.06 10.94 65.56 10.61 63.82 10.61H58.15V26.39ZM79.9352 29V8H88.1252C89.9652 8 91.5352 8.29 92.8352 8.87C94.1352 9.45 95.1352 10.29 95.8352 11.39C96.5352 12.49 96.8852 13.8 96.8852 15.32C96.8852 16.84 96.5352 18.15 95.8352 19.25C95.1352 20.33 94.1352 21.16 92.8352 21.74C91.5352 22.32 89.9652 22.61 88.1252 22.61H81.5852L82.9352 21.23V29H79.9352ZM93.9752 29L88.6352 21.38H91.8452L97.2452 29H93.9752ZM82.9352 21.53L81.5852 20.06H88.0352C89.9552 20.06 91.4052 19.65 92.3852 18.83C93.3852 17.99 93.8852 16.82 93.8852 15.32C93.8852 13.82 93.3852 12.66 92.3852 11.84C91.4052 11.02 89.9552 10.61 88.0352 10.61H81.5852L82.9352 9.11V21.53ZM101.732 29V8H104.732V29H101.732ZM115.644 29L108.624 8H111.714L118.164 27.38H116.604L123.294 8H126.054L132.594 27.38H131.094L137.634 8H140.484L133.464 29H130.314L124.194 11.03H125.004L118.854 29H115.644ZM140.3 29L149.81 8H152.78L162.32 29H159.17L150.68 9.68H151.88L143.39 29H140.3ZM144.35 23.75L145.16 21.35H156.98L157.85 23.75H144.35Z" fill="black"/>
<path d="M8.5404 22.1586C6.96765 22.1586 5.6938 23.4203 5.6938 24.9781C5.6938 26.5359 6.96765 27.7976 8.5404 27.7976C10.1131 27.7976 11.387 26.5359 11.387 24.9781C11.387 23.4203 10.1131 22.1586 8.5404 22.1586ZM8.5404 26.3879C7.75616 26.3879 7.1171 25.7549 7.1171 24.9781C7.1171 24.2013 7.75616 23.5683 8.5404 23.5683C9.32464 23.5683 9.9637 24.2013 9.9637 24.9781C9.9637 25.7549 9.32464 26.3879 8.5404 26.3879ZM37.0064 22.1586C35.4336 22.1586 34.1598 23.4203 34.1598 24.9781C34.1598 26.5359 35.4336 27.7976 37.0064 27.7976C38.5791 27.7976 39.853 26.5359 39.853 24.9781C39.853 23.4203 38.5791 22.1586 37.0064 22.1586ZM37.0064 26.3879C36.2222 26.3879 35.5831 25.7549 35.5831 24.9781C35.5831 24.2013 36.2222 23.5683 37.0064 23.5683C37.7906 23.5683 38.4297 24.2013 38.4297 24.9781C38.4297 25.7549 37.7906 26.3879 37.0064 26.3879ZM42.6996 13.7V10.8805C42.6996 10.1023 42.062 9.47072 41.2763 9.47072H29.8899C29.1042 9.47072 28.4666 10.1023 28.4666 10.8805V13.7C28.4666 16.4321 27.281 19.1572 26.4398 20.7488H19.06C16.101 15.021 19.9268 6.65119 19.9268 6.65119H21.3643C22.1429 6.65119 22.7734 6.02667 22.7734 5.25553V5.22733C22.7734 4.45619 22.1429 3.83167 21.3643 3.83167H14.2336C11.8752 7.72402 8.96597 13.4505 8.10345 16.5421C2.96961 16.8001 -0.971511 21.5326 0.211251 26.8883C1.00403 30.479 4.30039 33.4367 8.5404 33.4367C12.2566 33.4367 15.4107 31.081 16.5835 27.7976C17.2211 27.7976 28.9633 27.7976 28.9633 27.7976C30.1375 31.081 33.2902 33.4367 37.0064 33.4367C41.7232 33.4367 45.5462 29.6501 45.5462 24.9781C45.5462 20.7488 42.6996 13.7 42.6996 13.7ZM31.3132 12.2902H39.853V13.7H31.3132V12.2902ZM8.5404 30.6172C5.4006 30.6172 2.8472 28.088 2.8472 24.9781C2.8472 21.8682 5.4006 19.3391 8.5404 19.3391C11.6802 19.3391 14.2336 21.8682 14.2336 24.9781C14.2336 28.088 11.6802 30.6172 8.5404 30.6172ZM37.0064 30.6172C34.6039 30.6172 32.4504 29.1059 31.6462 26.8573L30.9744 24.9781H28.9619H15.6569C15.6569 21.792 13.5091 19.1304 10.5786 18.2578L10.8476 17.2907C11.5308 14.8419 13.7924 10.256 15.8661 6.64978H16.8582C15.8192 9.41433 13.6728 16.5111 16.5251 22.0317L17.3193 23.5683H28.1634L28.9619 22.0557C29.8771 20.3245 30.9346 17.8137 31.2278 15.1098H40.1989C41.0116 17.2004 42.6996 22.1332 42.6996 24.9781C42.6996 28.088 40.1462 30.6172 37.0064 30.6172Z" fill="black"/>
</svg>
