<svg width="80" height="80" viewBox="0 0 80 80" fill="none" xmlns="http://www.w3.org/2000/svg">
<rect width="80" height="80" rx="20" fill="#414141"/>
<path d="M60 62V57C60 54.3478 58.9464 51.8043 57.0711 49.9289C55.1957 48.0536 52.6522 47 50 47H30C27.3478 47 24.8043 48.0536 22.9289 49.9289C21.0536 51.8043 20 54.3478 20 57V62M50 27C50 32.5228 45.5228 37 40 37C34.4772 37 30 32.5228 30 27C30 21.4772 34.4772 17 40 17C45.5228 17 50 21.4772 50 27Z" stroke="white" stroke-width="4" stroke-linecap="round" stroke-linejoin="round"/>
<rect width="80" height="80" rx="20" fill="#414141"/>
<path d="M48.5 30.4986V41.7486C48.5 43.5388 49.2112 45.2557 50.477 46.5216C51.7429 47.7874 53.4598 48.4986 55.25 48.4986C57.0402 48.4986 58.7571 47.7874 60.023 46.5216C61.2888 45.2557 62 43.5388 62 41.7486V39.4986C61.9997 34.4204 60.2815 29.4917 57.1249 25.5138C53.9682 21.5359 49.5587 18.7429 44.6134 17.5888C39.6681 16.4347 34.4779 16.9874 29.8865 19.1572C25.2952 21.3269 21.5729 24.986 19.3248 29.5395C17.0768 34.093 16.4352 39.273 17.5044 44.2373C18.5736 49.2017 21.2907 53.6584 25.2139 56.8827C29.1372 60.107 34.0357 61.9094 39.1132 61.9967C44.1906 62.084 49.1483 60.4511 53.18 57.3636M48.5 39.4986C48.5 44.4692 44.4706 48.4986 39.5 48.4986C34.5295 48.4986 30.5 44.4692 30.5 39.4986C30.5 34.528 34.5295 30.4986 39.5 30.4986C44.4706 30.4986 48.5 34.528 48.5 39.4986Z" stroke="white" stroke-width="4" stroke-linecap="round" stroke-linejoin="round"/>
</svg>
