<svg width="50" height="50" viewBox="0 0 50 50" fill="none" xmlns="http://www.w3.org/2000/svg">
<path d="M25 46.4286C27.814 46.4286 30.6005 45.8743 33.2004 44.7974C35.8002 43.7205 38.1625 42.1421 40.1523 40.1523C42.1421 38.1625 43.7205 35.8002 44.7974 33.2004C45.8743 30.6005 46.4286 27.814 46.4286 25C46.4286 22.186 45.8743 19.3995 44.7974 16.7996C43.7205 14.1998 42.1421 11.8375 40.1523 9.84771C38.1625 7.85789 35.8002 6.27947 33.2004 5.20258C30.6005 4.12569 27.814 3.57143 25 3.57143C19.3168 3.57143 13.8663 5.82908 9.84771 9.84771C5.82908 13.8663 3.57143 19.3168 3.57143 25C3.57143 30.6832 5.82908 36.1337 9.84771 40.1523C13.8663 44.1709 19.3168 46.4286 25 46.4286ZM25 50C18.3696 50 12.0107 47.3661 7.32233 42.6777C2.63392 37.9893 0 31.6304 0 25C0 18.3696 2.63392 12.0107 7.32233 7.32233C12.0107 2.63392 18.3696 0 25 0C31.6304 0 37.9893 2.63392 42.6777 7.32233C47.3661 12.0107 50 18.3696 50 25C50 31.6304 47.3661 37.9893 42.6777 42.6777C37.9893 47.3661 31.6304 50 25 50Z" fill="black"/>
<path d="M7 25.1818C7 20.3597 8.89642 15.7351 12.2721 12.3253C15.6477 8.91558 20.2261 7 25 7C29.7739 7 34.3523 8.91558 37.7279 12.3253C41.1036 15.7351 43 20.3597 43 25.1818C43 25.664 42.8104 26.1265 42.4728 26.4675C42.1352 26.8084 41.6774 27 41.2 27C40.7226 27 40.2648 26.8084 39.9272 26.4675C39.5896 26.1265 39.4 25.664 39.4 25.1818C39.4 21.3241 37.8829 17.6244 35.1823 14.8966C32.4818 12.1688 28.8191 10.6364 25 10.6364C21.1809 10.6364 17.5182 12.1688 14.8177 14.8966C12.1171 17.6244 10.6 21.3241 10.6 25.1818C10.6 25.664 10.4104 26.1265 10.0728 26.4675C9.73523 26.8084 9.27739 27 8.8 27C8.32261 27 7.86477 26.8084 7.52721 26.4675C7.18964 26.1265 7 25.664 7 25.1818Z" fill="black"/>
<path d="M28.5369 31.5844C29.5293 32.339 30.2203 33.4165 30.4877 34.6266C30.7551 35.8367 30.5817 37.1014 29.9982 38.1973C29.4147 39.2931 28.4586 40.1494 27.299 40.615C26.1393 41.0806 24.8507 41.1253 23.6609 40.7414C22.4711 40.3575 21.4568 39.5697 20.7971 38.517C20.1373 37.4644 19.8748 36.2149 20.0558 34.9892C20.2368 33.7635 20.8497 32.6406 21.7862 31.819C22.7227 30.9973 23.9225 30.5298 25.1735 30.4991L28.544 20.2276C28.6138 20.0067 28.7272 19.8017 28.8777 19.6245C29.0281 19.4473 29.2125 19.3013 29.4203 19.1951C29.628 19.0889 29.855 19.0246 30.0881 19.0058C30.3212 18.987 30.5557 19.0141 30.7781 19.0857C31.0005 19.1572 31.2063 19.2717 31.3837 19.4225C31.5611 19.5733 31.7066 19.7574 31.8116 19.9642C31.9166 20.171 31.9792 20.3964 31.9956 20.6273C32.0121 20.8582 31.9821 21.09 31.9074 21.3094L28.5369 31.5809V31.5844ZM24.7597 37.4168C24.9808 37.488 25.2139 37.5155 25.4457 37.4976C25.6774 37.4797 25.9034 37.4167 26.1106 37.3124C26.3179 37.208 26.5023 37.0643 26.6534 36.8894C26.8045 36.7145 26.9194 36.5118 26.9914 36.293C27.0633 36.0742 27.0911 35.8434 27.073 35.614C27.0549 35.3845 26.9913 35.1609 26.8859 34.9557C26.7805 34.7506 26.6353 34.568 26.4586 34.4185C26.2819 34.2689 26.0771 34.1552 25.8561 34.084C25.4096 33.94 24.9236 33.9776 24.5051 34.1883C24.0866 34.3991 23.7698 34.7658 23.6244 35.2077C23.479 35.6497 23.5169 36.1307 23.7298 36.545C23.9427 36.9593 24.3132 37.2728 24.7597 37.4168Z" fill="black"/>
</svg>
