<svg width="1600" height="500" viewBox="0 0 1600 500" fill="none" xmlns="http://www.w3.org/2000/svg">
<rect width="1600" height="500" fill="#E4E1E1"/>
<path d="M841.625 306H760.375C755.206 306 751 301.807 751 296.654V246.808C751 241.655 755.206 237.462 760.375 237.462H774.066L779.444 226.726C779.969 225.667 781.053 225 782.238 225H819.769C820.953 225 822.034 225.667 822.566 226.726L827.934 237.462H841.625C846.794 237.462 851 241.655 851 246.808V296.654C851 301.807 846.794 306 841.625 306ZM844.75 246.808C844.75 245.091 843.347 243.692 841.625 243.692H826C825.844 243.692 825.709 243.627 825.559 243.605C825.337 243.571 825.116 243.552 824.903 243.471C824.713 243.399 824.553 243.284 824.381 243.175C824.213 243.072 824.041 242.985 823.894 242.848C823.728 242.695 823.609 242.508 823.481 242.322C823.394 242.197 823.272 242.107 823.203 241.966L817.834 231.231H784.172L778.797 241.966C778.65 242.262 778.453 242.518 778.234 242.742C778.191 242.789 778.137 242.817 778.091 242.86C777.866 243.063 777.619 243.228 777.35 243.356C777.259 243.403 777.172 243.44 777.075 243.477C776.731 243.602 776.375 243.689 776.006 243.692H776H760.375C758.653 243.692 757.25 245.091 757.25 246.808V296.654C757.25 298.37 758.653 299.769 760.375 299.769H841.625C843.347 299.769 844.75 298.37 844.75 296.654V246.808ZM801 290.423C788.938 290.423 779.125 280.641 779.125 268.615C779.125 256.59 788.938 246.808 801 246.808C813.062 246.808 822.875 256.59 822.875 268.615C822.875 280.641 813.062 290.423 801 290.423ZM801 253.038C792.384 253.038 785.375 260.026 785.375 268.615C785.375 277.204 792.384 284.192 801 284.192C809.616 284.192 816.625 277.204 816.625 268.615C816.625 260.026 809.616 253.038 801 253.038Z" fill="#7E7E7E"/>
<path d="M656.924 356V330.8H667.76C670.496 330.8 672.644 331.352 674.204 332.456C675.764 333.56 676.544 335.168 676.544 337.28C676.544 339.344 675.8 340.928 674.312 342.032C672.824 343.112 670.868 343.652 668.444 343.652L669.092 342.572C671.9 342.572 674.048 343.136 675.536 344.264C677.048 345.368 677.804 346.988 677.804 349.124C677.804 351.284 677.012 352.976 675.428 354.2C673.868 355.4 671.54 356 668.444 356H656.924ZM660.488 353.156H668.372C670.292 353.156 671.732 352.808 672.692 352.112C673.676 351.392 674.168 350.3 674.168 348.836C674.168 347.372 673.676 346.304 672.692 345.632C671.732 344.96 670.292 344.624 668.372 344.624H660.488V353.156ZM660.488 341.888H667.508C669.26 341.888 670.592 341.54 671.504 340.844C672.44 340.148 672.908 339.128 672.908 337.784C672.908 336.416 672.44 335.384 671.504 334.688C670.592 333.992 669.26 333.644 667.508 333.644H660.488V341.888ZM702.107 356V336.92H705.563V356H702.107ZM691.847 343.4C694.271 343.424 696.107 343.976 697.355 345.056C698.627 346.136 699.263 347.66 699.263 349.628C699.263 351.692 698.567 353.288 697.175 354.416C695.807 355.52 693.839 356.06 691.271 356.036L683.243 356V336.92H686.699V343.364L691.847 343.4ZM691.019 353.408C692.555 353.432 693.731 353.12 694.547 352.472C695.363 351.824 695.771 350.864 695.771 349.592C695.771 348.344 695.363 347.432 694.547 346.856C693.755 346.28 692.579 345.98 691.019 345.956L686.699 345.884V353.372L691.019 353.408ZM721.102 356.288C719.518 356.288 718.114 356.036 716.89 355.532C715.69 355.028 714.658 354.284 713.794 353.3C712.93 352.292 712.27 351.032 711.814 349.52C711.382 347.984 711.166 346.184 711.166 344.12C711.166 342.488 711.31 341.024 711.598 339.728C711.886 338.432 712.294 337.28 712.822 336.272C713.374 335.264 714.046 334.388 714.838 333.644C715.654 332.9 716.566 332.288 717.574 331.808C718.606 331.304 719.734 330.92 720.958 330.656L729.67 328.712L730.174 331.916L722.146 333.644C721.666 333.74 721.09 333.884 720.418 334.076C719.746 334.268 719.062 334.568 718.366 334.976C717.67 335.36 717.022 335.9 716.422 336.596C715.822 337.292 715.342 338.204 714.982 339.332C714.622 340.436 714.442 341.804 714.442 343.436C714.442 343.892 714.454 344.24 714.478 344.48C714.502 344.72 714.526 344.96 714.55 345.2C714.598 345.44 714.634 345.8 714.658 346.28L713.218 344.804C713.602 343.484 714.214 342.332 715.054 341.348C715.894 340.364 716.902 339.608 718.078 339.08C719.278 338.528 720.586 338.252 722.002 338.252C723.778 338.252 725.35 338.636 726.718 339.404C728.11 340.172 729.202 341.228 729.994 342.572C730.786 343.916 731.182 345.452 731.182 347.18C731.182 348.932 730.762 350.504 729.922 351.896C729.106 353.264 727.942 354.344 726.43 355.136C724.918 355.904 723.142 356.288 721.102 356.288ZM721.426 353.408C722.65 353.408 723.73 353.144 724.666 352.616C725.602 352.064 726.334 351.332 726.862 350.42C727.39 349.484 727.654 348.44 727.654 347.288C727.654 346.136 727.39 345.116 726.862 344.228C726.334 343.34 725.602 342.644 724.666 342.14C723.73 341.612 722.626 341.348 721.354 341.348C720.154 341.348 719.074 341.6 718.114 342.104C717.154 342.584 716.41 343.268 715.882 344.156C715.354 345.02 715.09 346.028 715.09 347.18C715.09 348.332 715.354 349.388 715.882 350.348C716.434 351.284 717.178 352.028 718.114 352.58C719.074 353.132 720.178 353.408 721.426 353.408ZM744.614 356.216C742.574 356.216 740.774 355.796 739.214 354.956C737.678 354.116 736.478 352.964 735.614 351.5C734.774 350.036 734.354 348.356 734.354 346.46C734.354 344.564 734.762 342.884 735.578 341.42C736.418 339.956 737.558 338.816 738.998 338C740.462 337.16 742.106 336.74 743.93 336.74C745.778 336.74 747.41 337.148 748.826 337.964C750.242 338.78 751.346 339.932 752.138 341.42C752.954 342.884 753.362 344.6 753.362 346.568C753.362 346.712 753.35 346.88 753.326 347.072C753.326 347.264 753.314 347.444 753.29 347.612H737.054V345.128H751.49L750.086 345.992C750.11 344.768 749.858 343.676 749.33 342.716C748.802 341.756 748.07 341.012 747.134 340.484C746.222 339.932 745.154 339.656 743.93 339.656C742.73 339.656 741.662 339.932 740.726 340.484C739.79 341.012 739.058 341.768 738.53 342.752C738.002 343.712 737.738 344.816 737.738 346.064V346.64C737.738 347.912 738.026 349.052 738.602 350.06C739.202 351.044 740.03 351.812 741.086 352.364C742.142 352.916 743.354 353.192 744.722 353.192C745.85 353.192 746.87 353 747.782 352.616C748.718 352.232 749.534 351.656 750.23 350.888L752.138 353.12C751.274 354.128 750.194 354.896 748.898 355.424C747.626 355.952 746.198 356.216 744.614 356.216ZM768.839 356.216C767.255 356.216 765.803 355.856 764.483 355.136C763.187 354.392 762.143 353.3 761.351 351.86C760.583 350.42 760.199 348.62 760.199 346.46C760.199 344.3 760.571 342.5 761.315 341.06C762.083 339.62 763.115 338.54 764.411 337.82C765.731 337.1 767.207 336.74 768.839 336.74C770.711 336.74 772.367 337.148 773.807 337.964C775.247 338.78 776.387 339.92 777.227 341.384C778.067 342.824 778.487 344.516 778.487 346.46C778.487 348.404 778.067 350.108 777.227 351.572C776.387 353.036 775.247 354.176 773.807 354.992C772.367 355.808 770.711 356.216 768.839 356.216ZM758.723 362.984V336.92H762.035V342.068L761.819 346.496L762.179 350.924V362.984H758.723ZM768.551 353.192C769.775 353.192 770.867 352.916 771.827 352.364C772.811 351.812 773.579 351.032 774.131 350.024C774.707 348.992 774.995 347.804 774.995 346.46C774.995 345.092 774.707 343.916 774.131 342.932C773.579 341.924 772.811 341.144 771.827 340.592C770.867 340.04 769.775 339.764 768.551 339.764C767.351 339.764 766.259 340.04 765.275 340.592C764.315 341.144 763.547 341.924 762.971 342.932C762.419 343.916 762.143 345.092 762.143 346.46C762.143 347.804 762.419 348.992 762.971 350.024C763.547 351.032 764.315 351.812 765.275 352.364C766.259 352.916 767.351 353.192 768.551 353.192ZM783.508 356V336.92H786.964V350.816L798.664 336.92H801.796V356H798.34V342.104L786.676 356H783.508ZM812.284 356V339.044L813.148 339.944H805.3V336.92H822.724V339.944H814.912L815.74 339.044V356H812.284ZM833.91 356.216C831.87 356.216 830.07 355.796 828.51 354.956C826.974 354.116 825.774 352.964 824.91 351.5C824.07 350.036 823.65 348.356 823.65 346.46C823.65 344.564 824.058 342.884 824.874 341.42C825.714 339.956 826.854 338.816 828.294 338C829.758 337.16 831.402 336.74 833.226 336.74C835.074 336.74 836.706 337.148 838.122 337.964C839.538 338.78 840.642 339.932 841.434 341.42C842.25 342.884 842.658 344.6 842.658 346.568C842.658 346.712 842.646 346.88 842.622 347.072C842.622 347.264 842.61 347.444 842.586 347.612H826.35V345.128H840.786L839.382 345.992C839.406 344.768 839.154 343.676 838.626 342.716C838.098 341.756 837.366 341.012 836.43 340.484C835.518 339.932 834.45 339.656 833.226 339.656C832.026 339.656 830.958 339.932 830.022 340.484C829.086 341.012 828.354 341.768 827.826 342.752C827.298 343.712 827.034 344.816 827.034 346.064V346.64C827.034 347.912 827.322 349.052 827.898 350.06C828.498 351.044 829.326 351.812 830.382 352.364C831.438 352.916 832.65 353.192 834.018 353.192C835.146 353.192 836.166 353 837.078 352.616C838.014 352.232 838.83 351.656 839.526 350.888L841.434 353.12C840.57 354.128 839.49 354.896 838.194 355.424C836.922 355.952 835.494 356.216 833.91 356.216ZM869.064 356.288C869.04 356.288 868.956 356.288 868.812 356.288C868.692 356.288 868.572 356.288 868.452 356.288C868.332 356.288 868.26 356.288 868.236 356.288C864.324 356.24 861.288 355.376 859.128 353.696C856.968 351.992 855.888 349.568 855.888 346.424C855.888 343.304 856.968 340.916 859.128 339.26C861.312 337.58 864.384 336.728 868.344 336.704C868.392 336.704 868.464 336.704 868.56 336.704C868.68 336.704 868.788 336.704 868.884 336.704C869.004 336.704 869.076 336.704 869.1 336.704C873.108 336.704 876.216 337.544 878.424 339.224C880.656 340.904 881.772 343.304 881.772 346.424C881.772 349.592 880.656 352.028 878.424 353.732C876.192 355.436 873.072 356.288 869.064 356.288ZM868.992 353.264C871.08 353.264 872.808 353 874.176 352.472C875.568 351.944 876.612 351.176 877.308 350.168C878.004 349.16 878.352 347.912 878.352 346.424C878.352 344.96 878.004 343.736 877.308 342.752C876.612 341.768 875.568 341.024 874.176 340.52C872.808 340.016 871.08 339.764 868.992 339.764C868.944 339.764 868.848 339.764 868.704 339.764C868.56 339.764 868.476 339.764 868.452 339.764C866.412 339.764 864.708 340.028 863.34 340.556C861.996 341.06 860.988 341.804 860.316 342.788C859.644 343.772 859.308 344.984 859.308 346.424C859.308 347.888 859.644 349.124 860.316 350.132C861.012 351.14 862.032 351.908 863.376 352.436C864.744 352.964 866.436 353.24 868.452 353.264C868.5 353.264 868.584 353.264 868.704 353.264C868.848 353.264 868.944 353.264 868.992 353.264ZM867.12 362.984V329.288H870.504V362.984H867.12ZM894.829 356.216C892.909 356.216 891.205 355.796 889.717 354.956C888.229 354.116 887.053 352.964 886.189 351.5C885.325 350.012 884.893 348.332 884.893 346.46C884.893 344.564 885.325 342.884 886.189 341.42C887.053 339.956 888.229 338.816 889.717 338C891.205 337.16 892.909 336.74 894.829 336.74C896.725 336.74 898.417 337.16 899.905 338C901.417 338.816 902.593 339.956 903.433 341.42C904.297 342.86 904.729 344.54 904.729 346.46C904.729 348.356 904.297 350.036 903.433 351.5C902.593 352.964 901.417 354.116 899.905 354.956C898.417 355.796 896.725 356.216 894.829 356.216ZM894.829 353.192C896.053 353.192 897.145 352.916 898.105 352.364C899.089 351.812 899.857 351.032 900.409 350.024C900.961 348.992 901.237 347.804 901.237 346.46C901.237 345.092 900.961 343.916 900.409 342.932C899.857 341.924 899.089 341.144 898.105 340.592C897.145 340.04 896.053 339.764 894.829 339.764C893.605 339.764 892.513 340.04 891.553 340.592C890.593 341.144 889.825 341.924 889.249 342.932C888.673 343.916 888.385 345.092 888.385 346.46C888.385 347.804 888.673 348.992 889.249 350.024C889.825 351.032 890.593 351.812 891.553 352.364C892.513 352.916 893.605 353.192 894.829 353.192ZM912.796 356V339.044L913.66 339.944H905.812V336.92H923.236V339.944H915.424L916.252 339.044V356H912.796ZM934.098 356.216C932.178 356.216 930.474 355.796 928.986 354.956C927.498 354.116 926.322 352.964 925.458 351.5C924.594 350.012 924.162 348.332 924.162 346.46C924.162 344.564 924.594 342.884 925.458 341.42C926.322 339.956 927.498 338.816 928.986 338C930.474 337.16 932.178 336.74 934.098 336.74C935.994 336.74 937.686 337.16 939.174 338C940.686 338.816 941.862 339.956 942.702 341.42C943.566 342.86 943.998 344.54 943.998 346.46C943.998 348.356 943.566 350.036 942.702 351.5C941.862 352.964 940.686 354.116 939.174 354.956C937.686 355.796 935.994 356.216 934.098 356.216ZM934.098 353.192C935.322 353.192 936.414 352.916 937.374 352.364C938.358 351.812 939.126 351.032 939.678 350.024C940.23 348.992 940.506 347.804 940.506 346.46C940.506 345.092 940.23 343.916 939.678 342.932C939.126 341.924 938.358 341.144 937.374 340.592C936.414 340.04 935.322 339.764 934.098 339.764C932.874 339.764 931.782 340.04 930.822 340.592C929.862 341.144 929.094 341.924 928.518 342.932C927.942 343.916 927.654 345.092 927.654 346.46C927.654 347.804 927.942 348.992 928.518 350.024C929.094 351.032 929.862 351.812 930.822 352.364C931.782 352.916 932.874 353.192 934.098 353.192Z" fill="#7E7E7E"/>
</svg>
