<svg width="40" height="40" viewBox="0 0 40 40" fill="none" xmlns="http://www.w3.org/2000/svg">
<rect width="40" height="40" fill="#414141"/>
<path fill-rule="evenodd" clip-rule="evenodd" d="M10 19.5C10 19.178 10.1317 18.8692 10.3661 18.6415C10.6005 18.4138 10.9184 18.2859 11.2499 18.2859H25.7307L20.3638 13.0752C20.1292 12.8472 19.9973 12.538 19.9973 12.2156C19.9973 11.8932 20.1292 11.584 20.3638 11.356C20.5985 11.1281 20.9168 11 21.2487 11C21.5806 11 21.899 11.1281 22.1336 11.356L29.6328 18.6404C29.7492 18.7532 29.8415 18.8872 29.9046 19.0347C29.9676 19.1822 30 19.3403 30 19.5C30 19.6597 29.9676 19.8178 29.9046 19.9653C29.8415 20.1128 29.7492 20.2468 29.6328 20.3596L22.1336 27.644C21.899 27.8719 21.5806 28 21.2487 28C20.9168 28 20.5985 27.8719 20.3638 27.644C20.1292 27.416 19.9973 27.1068 19.9973 26.7844C19.9973 26.462 20.1292 26.1528 20.3638 25.9248L25.7307 20.7141H11.2499C10.9184 20.7141 10.6005 20.5862 10.3661 20.3585C10.1317 20.1308 10 19.822 10 19.5Z" fill="white"/>
</svg>
