<svg width="44" height="45" viewBox="0 0 44 45" fill="none" xmlns="http://www.w3.org/2000/svg">
<path d="M43.7174 41.579L41.8109 29.3694V21.2238C41.8109 19.7344 40.5993 18.5228 39.1099 18.5228H32.2429C30.885 18.5228 29.7584 19.5301 29.5701 20.8367H27.9484C27.7342 19.5262 26.5945 18.5228 25.2244 18.5228H20.7479V16.0342C21.9851 15.3322 23.1209 14.2361 24.0862 12.7873C25.7139 10.344 26.7643 7.02617 27.0442 3.44464C27.1133 2.56054 26.8076 1.67967 26.2053 1.02762C25.6017 0.374609 24.7469 0 23.8598 0H10.9751C10.0869 0 9.23192 0.374085 8.62902 1.02649C8.02699 1.67793 7.72143 2.55949 7.79066 3.44473C8.07029 7.02617 9.12087 10.344 10.7486 12.7873C11.7138 14.2361 12.8499 15.3322 14.087 16.0342V18.5228H10.637C9.11485 18.5228 7.87639 19.7612 7.87639 21.2834V23.0027H1.46779C0.657203 23.0027 0 23.6599 0 24.4705C0 25.2811 0.657203 25.9383 1.46779 25.9383H7.87639V27.6575C7.87639 29.1799 9.11485 30.4182 10.637 30.4182H15.929L15.904 32.198L12.9235 36.4967C12.4616 37.1629 12.6273 38.0773 13.2934 38.5392C13.9597 39.0012 14.8742 38.8355 15.336 38.1694L18.5716 33.5028C18.7378 33.2629 18.8289 32.9789 18.8329 32.6869L18.8646 30.4183H25.2243C26.5943 30.4183 27.734 29.4148 27.9482 28.1042H29.5419V28.8361L27.5434 41.5769C27.4209 42.3574 27.6451 43.1497 28.1585 43.7505C28.6731 44.3527 29.4213 44.6982 30.2116 44.6982H41.0487C41.8395 44.6982 42.5878 44.3535 43.1017 43.7523C43.6151 43.152 43.8395 42.3597 43.7174 41.579ZM10.7173 3.216C10.7116 3.14336 10.7362 3.07143 10.785 3.0187C10.8338 2.96588 10.9031 2.9355 10.975 2.9355H23.8598C23.9307 2.9355 23.9997 2.96614 24.049 3.01966C24.0983 3.07282 24.1232 3.14441 24.1176 3.21609C23.802 7.25498 21.8694 13.2264 18.0776 13.9424C17.6389 14.0267 17.196 14.0267 16.7573 13.9424C16.7518 13.9414 16.7464 13.9402 16.7409 13.9391C13.5239 13.3063 11.1249 8.4325 10.7173 3.216ZM17.8123 16.9305V18.5228H17.0226V16.9305C17.2662 16.9457 17.544 16.9472 17.8123 16.9305ZM25.0495 22.3046V26.6364V27.4827H10.812V21.4584C11.0885 21.4584 24.6258 21.4584 25.0495 21.4584V22.3046ZM29.5421 25.1686H27.9852V23.7724H29.5421V25.1686ZM30.486 41.7626L32.46 29.178C32.4854 29.0166 32.4778 29.5729 32.4778 21.4584H38.8754C38.8754 30.1428 38.8675 29.546 38.8931 29.7098L40.7751 41.7626H30.486Z" fill="black"/>
</svg>
