<svg width="80" height="80" viewBox="0 0 80 80" fill="none" xmlns="http://www.w3.org/2000/svg">
<rect width="80" height="80" rx="20" fill="#414141"/>
<path d="M60 62V57C60 54.3478 58.9464 51.8043 57.0711 49.9289C55.1957 48.0536 52.6522 47 50 47H30C27.3478 47 24.8043 48.0536 22.9289 49.9289C21.0536 51.8043 20 54.3478 20 57V62M50 27C50 32.5228 45.5228 37 40 37C34.4772 37 30 32.5228 30 27C30 21.4772 34.4772 17 40 17C45.5228 17 50 21.4772 50 27Z" stroke="white" stroke-width="4" stroke-linecap="round" stroke-linejoin="round"/>
</svg>
