<svg width="44" height="44" viewBox="0 0 44 44" fill="none" xmlns="http://www.w3.org/2000/svg">
<path fill-rule="evenodd" clip-rule="evenodd" d="M0.732248 0.73223C1.20109 0.263389 1.83697 -3.43074e-06 2.50002 -3.43074e-06C3.16306 -3.43074e-06 3.79894 0.263389 4.26778 0.73223L21.9455 18.4099L39.6231 0.73223C40.092 0.263389 40.7278 -4.03765e-06 41.3909 -4.03765e-06C42.0539 -4.03765e-06 42.6898 0.263389 43.1587 0.73223C43.6275 1.20107 43.8909 1.83696 43.8909 2.5C43.8909 3.16304 43.6275 3.79892 43.1587 4.26776L25.481 21.9454L43.1587 39.6231C43.6275 40.0919 43.8909 40.7278 43.8909 41.3909C43.8909 42.0539 43.6275 42.6898 43.1587 43.1586C42.6898 43.6275 42.0539 43.8909 41.3909 43.8909C40.7278 43.8909 40.092 43.6275 39.6231 43.1586L21.9455 25.481L4.26778 43.1586C3.79894 43.6275 3.16306 43.8909 2.50002 43.8909C1.83697 43.8909 1.20109 43.6275 0.732248 43.1586C0.263407 42.6898 1.4906e-05 42.0539 1.4906e-05 41.3909C1.4906e-05 40.7278 0.263407 40.0919 0.732248 39.6231L18.4099 21.9454L0.732248 4.26776C0.263407 3.79892 1.4906e-05 3.16304 1.4906e-05 2.5C1.4906e-05 1.83696 0.263407 1.20107 0.732248 0.73223Z" fill="black"/>
</svg>
