<svg width="47" height="44" viewBox="0 0 47 44" fill="none" xmlns="http://www.w3.org/2000/svg">
<path d="M6.63261 4.87183C12.0185 0.061774 19.2014 1.68514 23.5 6.93802C29.52 2.00658 34.8594 0.112374 40.3379 4.87183C45.8163 9.6313 46.4821 17.724 42.2526 23.413C38.7359 28.1428 28.0936 38.1186 24.6056 41.3475L24.6037 41.3492C24.2146 41.7093 24.02 41.8894 23.7927 41.9602C23.5939 42.0221 23.3765 42.0221 23.178 41.9602C22.9503 41.8893 22.7552 41.7087 22.3651 41.3475C18.877 38.1186 8.23462 28.1428 4.71803 23.413C0.488476 17.724 1.24673 9.6819 6.63261 4.87183Z" stroke="black" stroke-width="4" stroke-linecap="round" stroke-linejoin="round"/>
</svg>
