<svg width="40" height="40" viewBox="0 0 40 40" fill="none" xmlns="http://www.w3.org/2000/svg">
<path d="M37.9236 21.58C37.609 24.9844 36.3313 28.2288 34.2401 30.9336C32.1489 33.6384 29.3306 35.6916 26.115 36.8531C22.8995 38.0146 19.4196 38.2363 16.0826 37.4922C12.7457 36.7482 9.68962 35.0691 7.27208 32.6516C4.85454 30.234 3.17551 27.178 2.43145 23.841C1.68738 20.5041 1.90906 17.0242 3.07055 13.8086C4.23204 10.5931 6.28529 7.77477 8.99006 5.68354C11.6948 3.59231 14.9392 2.31465 18.3436 2.00003C16.3505 4.69657 15.3913 8.01893 15.6407 11.3629C15.8901 14.7068 17.3314 17.8502 19.7024 20.2212C22.0735 22.5923 25.2169 24.0336 28.5608 24.283C31.9047 24.5323 35.2271 23.5732 37.9236 21.58Z" stroke="black" stroke-width="4" stroke-linecap="round" stroke-linejoin="round"/>
</svg>
