<svg width="48" height="48" viewBox="0 0 48 48" fill="none" xmlns="http://www.w3.org/2000/svg">
<path d="M23.8749 23.875C27.52 23.875 30.4749 20.9201 30.4749 17.275C30.4749 13.63 27.52 10.675 23.8749 10.675C20.2298 10.675 17.2749 13.63 17.2749 17.275C17.2749 20.9201 20.2298 23.875 23.8749 23.875Z" stroke="black" stroke-width="3.75"/>
<path d="M23.875 45.875C36.0253 45.875 45.875 36.0253 45.875 23.875C45.875 11.7247 36.0253 1.875 23.875 1.875C11.7247 1.875 1.875 11.7247 1.875 23.875C1.875 36.0253 11.7247 45.875 23.875 45.875Z" stroke="black" stroke-width="3.75"/>
<path d="M37.007 41.4751C36.657 35.1138 34.7093 30.4751 23.8748 30.4751C13.0405 30.4751 11.0928 35.1138 10.7427 41.4751" stroke="black" stroke-width="3.75" stroke-linecap="round"/>
</svg>
